<svg width="658" height="97" viewBox="0 0 658 97" fill="none" xmlns="http://www.w3.org/2000/svg">
<rect width="658" height="97" fill="white"/>
<path id="Association" d="M69.647 95C68.1963 91.16 66.831 87.4053 65.551 83.736C64.271 79.9813 62.9483 76.184 61.583 72.344H21.391L13.327 95H0.399C3.81233 85.6133 7.01233 76.952 9.999 69.016C12.9857 60.9947 15.887 53.4 18.703 46.232C21.6043 39.064 24.463 32.2373 27.279 25.752C30.095 19.1813 33.039 12.696 36.111 6.296H47.503C50.575 12.696 53.519 19.1813 56.335 25.752C59.151 32.2373 61.967 39.064 64.783 46.232C67.6843 53.4 70.6283 60.9947 73.615 69.016C76.6017 76.952 79.8017 85.6133 83.215 95H69.647ZM57.999 62.104C55.2683 54.68 52.5377 47.512 49.807 40.6C47.1617 33.6027 44.3883 26.904 41.487 20.504C38.5003 26.904 35.6417 33.6027 32.911 40.6C30.2657 47.512 27.6203 54.68 24.975 62.104H57.999ZM111.603 86.424C116.467 86.424 120.051 85.784 122.355 84.504C124.744 83.224 125.939 81.176 125.939 78.36C125.939 75.4587 124.787 73.1547 122.483 71.448C120.179 69.7413 116.382 67.8213 111.091 65.688C108.531 64.664 106.056 63.64 103.667 62.616C101.363 61.5067 99.3577 60.2267 97.651 58.776C95.9443 57.3253 94.579 55.576 93.555 53.528C92.531 51.48 92.019 48.9627 92.019 45.976C92.019 40.088 94.195 35.4373 98.547 32.024C102.899 28.5253 108.83 26.776 116.339 26.776C118.216 26.776 120.094 26.904 121.971 27.16C123.848 27.3307 125.598 27.5867 127.219 27.928C128.84 28.184 130.248 28.4827 131.443 28.824C132.723 29.1653 133.704 29.464 134.387 29.72L132.211 39.96C130.931 39.2773 128.926 38.5947 126.195 37.912C123.464 37.144 120.179 36.76 116.339 36.76C113.011 36.76 110.11 37.4427 107.635 38.808C105.16 40.088 103.923 42.136 103.923 44.952C103.923 46.4027 104.179 47.6827 104.691 48.792C105.288 49.9013 106.142 50.9253 107.251 51.864C108.446 52.7173 109.896 53.528 111.603 54.296C113.31 55.064 115.358 55.8747 117.747 56.728C120.904 57.9227 123.72 59.1173 126.195 60.312C128.67 61.4213 130.76 62.744 132.467 64.28C134.259 65.816 135.624 67.6933 136.563 69.912C137.502 72.0453 137.971 74.6907 137.971 77.848C137.971 83.992 135.667 88.6427 131.059 91.8C126.536 94.9573 120.051 96.536 111.603 96.536C105.715 96.536 101.107 96.024 97.779 95C94.451 94.0613 92.1897 93.336 90.995 92.824L93.171 82.584C94.5363 83.096 96.7123 83.864 99.699 84.888C102.686 85.912 106.654 86.424 111.603 86.424ZM168.728 86.424C173.592 86.424 177.176 85.784 179.48 84.504C181.869 83.224 183.064 81.176 183.064 78.36C183.064 75.4587 181.912 73.1547 179.608 71.448C177.304 69.7413 173.507 67.8213 168.216 65.688C165.656 64.664 163.181 63.64 160.792 62.616C158.488 61.5067 156.483 60.2267 154.776 58.776C153.069 57.3253 151.704 55.576 150.68 53.528C149.656 51.48 149.144 48.9627 149.144 45.976C149.144 40.088 151.32 35.4373 155.672 32.024C160.024 28.5253 165.955 26.776 173.464 26.776C175.341 26.776 177.219 26.904 179.096 27.16C180.973 27.3307 182.723 27.5867 184.344 27.928C185.965 28.184 187.373 28.4827 188.568 28.824C189.848 29.1653 190.829 29.464 191.512 29.72L189.336 39.96C188.056 39.2773 186.051 38.5947 183.32 37.912C180.589 37.144 177.304 36.76 173.464 36.76C170.136 36.76 167.235 37.4427 164.76 38.808C162.285 40.088 161.048 42.136 161.048 44.952C161.048 46.4027 161.304 47.6827 161.816 48.792C162.413 49.9013 163.267 50.9253 164.376 51.864C165.571 52.7173 167.021 53.528 168.728 54.296C170.435 55.064 172.483 55.8747 174.872 56.728C178.029 57.9227 180.845 59.1173 183.32 60.312C185.795 61.4213 187.885 62.744 189.592 64.28C191.384 65.816 192.749 67.6933 193.688 69.912C194.627 72.0453 195.096 74.6907 195.096 77.848C195.096 83.992 192.792 88.6427 188.184 91.8C183.661 94.9573 177.176 96.536 168.728 96.536C162.84 96.536 158.232 96.024 154.904 95C151.576 94.0613 149.315 93.336 148.12 92.824L150.296 82.584C151.661 83.096 153.837 83.864 156.824 84.888C159.811 85.912 163.779 86.424 168.728 86.424ZM269.117 61.72C269.117 67.0107 268.349 71.7893 266.813 76.056C265.277 80.3227 263.101 83.992 260.285 87.064C257.554 90.136 254.269 92.5253 250.429 94.232C246.589 95.8533 242.408 96.664 237.885 96.664C233.362 96.664 229.181 95.8533 225.341 94.232C221.501 92.5253 218.173 90.136 215.357 87.064C212.626 83.992 210.493 80.3227 208.957 76.056C207.421 71.7893 206.653 67.0107 206.653 61.72C206.653 56.5147 207.421 51.7787 208.957 47.512C210.493 43.16 212.626 39.448 215.357 36.376C218.173 33.304 221.501 30.9573 225.341 29.336C229.181 27.6293 233.362 26.776 237.885 26.776C242.408 26.776 246.589 27.6293 250.429 29.336C254.269 30.9573 257.554 33.304 260.285 36.376C263.101 39.448 265.277 43.16 266.813 47.512C268.349 51.7787 269.117 56.5147 269.117 61.72ZM256.701 61.72C256.701 54.2107 254.994 48.28 251.581 43.928C248.253 39.4907 243.688 37.272 237.885 37.272C232.082 37.272 227.474 39.4907 224.061 43.928C220.733 48.28 219.069 54.2107 219.069 61.72C219.069 69.2293 220.733 75.2027 224.061 79.64C227.474 83.992 232.082 86.168 237.885 86.168C243.688 86.168 248.253 83.992 251.581 79.64C254.994 75.2027 256.701 69.2293 256.701 61.72ZM314.793 96.536C309.417 96.536 304.681 95.6827 300.585 93.976C296.574 92.2693 293.161 89.88 290.345 86.808C287.614 83.736 285.566 80.1093 284.201 75.928C282.836 71.6613 282.153 66.968 282.153 61.848C282.153 56.728 282.878 52.0347 284.329 47.768C285.865 43.5013 287.998 39.832 290.729 36.76C293.46 33.6027 296.788 31.1707 300.713 29.464C304.724 27.672 309.161 26.776 314.025 26.776C317.012 26.776 319.998 27.032 322.985 27.544C325.972 28.056 328.83 28.8667 331.561 29.976L328.873 40.088C327.081 39.2347 324.99 38.552 322.601 38.04C320.297 37.528 317.822 37.272 315.177 37.272C308.521 37.272 303.401 39.3627 299.817 43.544C296.318 47.7253 294.569 53.8267 294.569 61.848C294.569 65.432 294.953 68.7173 295.721 71.704C296.574 74.6907 297.854 77.2507 299.561 79.384C301.353 81.5173 303.614 83.1813 306.345 84.376C309.076 85.4853 312.404 86.04 316.329 86.04C319.486 86.04 322.345 85.7413 324.905 85.144C327.465 84.5467 329.47 83.9067 330.921 83.224L332.585 93.208C331.902 93.6347 330.921 94.0613 329.641 94.488C328.361 94.8293 326.91 95.128 325.289 95.384C323.668 95.7253 321.918 95.9813 320.041 96.152C318.249 96.408 316.5 96.536 314.793 96.536ZM357.269 95H345.365V28.44H357.269V95ZM351.253 16.408C349.12 16.408 347.285 15.7253 345.749 14.36C344.298 12.9093 343.573 10.9893 343.573 8.6C343.573 6.21067 344.298 4.33333 345.749 2.96799C347.285 1.51733 349.12 0.791992 351.253 0.791992C353.386 0.791992 355.178 1.51733 356.629 2.96799C358.165 4.33333 358.933 6.21067 358.933 8.6C358.933 10.9893 358.165 12.9093 356.629 14.36C355.178 15.7253 353.386 16.408 351.253 16.408ZM400.268 86.424C403.084 86.424 405.559 86.3813 407.692 86.296C409.911 86.1253 411.745 85.8693 413.196 85.528V65.688C412.343 65.2613 410.935 64.92 408.972 64.664C407.095 64.3227 404.791 64.152 402.06 64.152C400.268 64.152 398.348 64.28 396.3 64.536C394.337 64.792 392.503 65.3467 390.796 66.2C389.175 66.968 387.809 68.0773 386.7 69.528C385.591 70.8933 385.036 72.728 385.036 75.032C385.036 79.2987 386.401 82.2853 389.132 83.992C391.863 85.6133 395.575 86.424 400.268 86.424ZM399.244 26.776C404.023 26.776 408.033 27.416 411.276 28.696C414.604 29.8907 417.249 31.64 419.212 33.944C421.26 36.1627 422.711 38.8507 423.564 42.008C424.417 45.08 424.844 48.4933 424.844 52.248V93.848C423.82 94.0187 422.369 94.2747 420.492 94.616C418.7 94.872 416.652 95.128 414.348 95.384C412.044 95.64 409.527 95.8533 406.796 96.024C404.151 96.28 401.505 96.408 398.86 96.408C395.105 96.408 391.649 96.024 388.492 95.256C385.335 94.488 382.604 93.2933 380.3 91.672C377.996 89.9653 376.204 87.7467 374.924 85.016C373.644 82.2853 373.004 79 373.004 75.16C373.004 71.4907 373.729 68.3333 375.18 65.688C376.716 63.0427 378.764 60.9093 381.324 59.288C383.884 57.6667 386.871 56.472 390.284 55.704C393.697 54.936 397.281 54.552 401.036 54.552C402.231 54.552 403.468 54.6373 404.748 54.808C406.028 54.8933 407.223 55.064 408.332 55.32C409.527 55.4907 410.551 55.6613 411.404 55.832C412.257 56.0027 412.855 56.1307 413.196 56.216V52.888C413.196 50.9253 412.983 49.0053 412.556 47.128C412.129 45.1653 411.361 43.4587 410.252 42.008C409.143 40.472 407.607 39.2773 405.644 38.424C403.767 37.4853 401.292 37.016 398.22 37.016C394.295 37.016 390.839 37.3147 387.852 37.912C384.951 38.424 382.775 38.9787 381.324 39.576L379.916 29.72C381.452 29.0373 384.012 28.3973 387.596 27.8C391.18 27.1173 395.063 26.776 399.244 26.776ZM455.751 28.44H480.967V38.424H455.751V69.144C455.751 72.472 456.007 75.2453 456.519 77.464C457.031 79.5973 457.799 81.304 458.823 82.584C459.847 83.7787 461.127 84.632 462.663 85.144C464.199 85.656 465.991 85.912 468.039 85.912C471.623 85.912 474.482 85.528 476.615 84.76C478.834 83.9067 480.37 83.3093 481.223 82.968L483.527 92.824C482.332 93.4213 480.242 94.1467 477.255 95C474.268 95.9387 470.855 96.408 467.015 96.408C462.492 96.408 458.738 95.8533 455.751 94.744C452.85 93.5493 450.503 91.8 448.711 89.496C446.919 87.192 445.639 84.376 444.871 81.048C444.188 77.6347 443.847 73.7093 443.847 69.272V9.88L455.751 7.83199V28.44ZM508.019 95H496.115V28.44H508.019V95ZM502.003 16.408C499.87 16.408 498.035 15.7253 496.499 14.36C495.048 12.9093 494.323 10.9893 494.323 8.6C494.323 6.21067 495.048 4.33333 496.499 2.96799C498.035 1.51733 499.87 0.791992 502.003 0.791992C504.136 0.791992 505.928 1.51733 507.379 2.96799C508.915 4.33333 509.683 6.21067 509.683 8.6C509.683 10.9893 508.915 12.9093 507.379 14.36C505.928 15.7253 504.136 16.408 502.003 16.408ZM587.242 61.72C587.242 67.0107 586.474 71.7893 584.938 76.056C583.402 80.3227 581.226 83.992 578.41 87.064C575.679 90.136 572.394 92.5253 568.554 94.232C564.714 95.8533 560.533 96.664 556.01 96.664C551.487 96.664 547.306 95.8533 543.466 94.232C539.626 92.5253 536.298 90.136 533.482 87.064C530.751 83.992 528.618 80.3227 527.082 76.056C525.546 71.7893 524.778 67.0107 524.778 61.72C524.778 56.5147 525.546 51.7787 527.082 47.512C528.618 43.16 530.751 39.448 533.482 36.376C536.298 33.304 539.626 30.9573 543.466 29.336C547.306 27.6293 551.487 26.776 556.01 26.776C560.533 26.776 564.714 27.6293 568.554 29.336C572.394 30.9573 575.679 33.304 578.41 36.376C581.226 39.448 583.402 43.16 584.938 47.512C586.474 51.7787 587.242 56.5147 587.242 61.72ZM574.826 61.72C574.826 54.2107 573.119 48.28 569.706 43.928C566.378 39.4907 561.813 37.272 556.01 37.272C550.207 37.272 545.599 39.4907 542.186 43.928C538.858 48.28 537.194 54.2107 537.194 61.72C537.194 69.2293 538.858 75.2027 542.186 79.64C545.599 83.992 550.207 86.168 556.01 86.168C561.813 86.168 566.378 83.992 569.706 79.64C573.119 75.2027 574.826 69.2293 574.826 61.72ZM603.99 30.36C606.721 29.6773 610.347 28.952 614.87 28.184C619.393 27.416 624.598 27.032 630.486 27.032C635.777 27.032 640.171 27.8 643.67 29.336C647.169 30.7867 649.942 32.8773 651.99 35.608C654.123 38.2533 655.617 41.4533 656.47 45.208C657.323 48.9627 657.75 53.1013 657.75 57.624V95H645.846V60.184C645.846 56.088 645.547 52.5893 644.95 49.688C644.438 46.7867 643.542 44.44 642.262 42.648C640.982 40.856 639.275 39.576 637.142 38.808C635.009 37.9547 632.363 37.528 629.206 37.528C627.926 37.528 626.603 37.5707 625.238 37.656C623.873 37.7413 622.55 37.8693 621.27 38.04C620.075 38.1253 618.966 38.2533 617.942 38.424C617.003 38.5947 616.321 38.7227 615.894 38.808V95H603.99V30.36Z" fill="black"/>
</svg>
