<svg fill="none" height="66" viewBox="0 0 213 66" width="213" xmlns="http://www.w3.org/2000/svg"><path d="m51.873 65.5331-.0413-6.8321h-16.9772v-4.0913l15.5871-18.5736h7.2823v18.0821h4.3371v4.5812h-4.3371v6.8321h-5.8493zm-10.7586-11.4149h10.7586v-12.6418z" fill="#bfdcff" fill-opacity=".8"/><path d="m10.4092 65.5333v-1.0637c0-1.5814.3133-2.9733.9416-4.1721.6547-1.2006 1.5007-2.2642 2.5363-3.191 1.0636-.9268 2.2361-1.7596 3.5175-2.4951 1.2813-.7635 2.5494-1.4858 3.8044-2.1685 1.2813-.6811 2.4538-1.377 3.5175-2.0861 1.0636-.7355 1.9096-1.527 2.5362-2.373.6267-.8724.9417-1.8684.9417-2.9865 0-1.118-.2589-1.9772-.7767-2.6583-.5179-.7091-1.2138-1.2417-2.0861-1.5963-.846-.3545-1.786-.5326-2.8232-.5326-1.3358 0-2.4819.2325-3.4367.6959-.9268.4634-1.6359 1.1049-2.1273 1.9228-.4915.8179-.7767 1.7727-.8592 2.8644h-5.6052c.1632-2.2361.7503-4.0913 1.7595-5.5639 1.0093-1.4727 2.3995-2.5776 4.1722-3.313 1.7728-.7372 3.872-1.1049 6.2995-1.1049 2.4274 0 4.4871.3826 6.1774 1.1461s2.9733 1.8272 3.8457 3.1909c.9004 1.3638 1.3506 2.9585 1.3506 4.7857 0 1.3638-.2721 2.5907-.818 3.6824-.5178 1.0636-1.2269 2.0184-2.1273 2.8644-.8723.846-1.8403 1.6095-2.904 2.2906-1.0637.681-2.1553 1.3225-3.2734 1.9228s-2.1686 1.1857-3.1498 1.7596c-.9812.5722-1.8139 1.1593-2.495 1.7595-.6827.6003-1.1313 1.255-1.3506 1.9641h16.3226v4.4591h-23.8902z" fill="#bfdcff" fill-opacity=".8"/><path d="m0 37.5913c0-.5887.478232-1.0669 1.06695-1.0669h7.47032c0 4.7147-3.82256 8.5373-8.53727 8.5373z" fill="#bfdcff" fill-opacity=".8"/><g fill="#fff"><path d="m82.8496 31.0976-9.3271-29.82358h6.7496l5.1551 18.36908 1.4726 5.564h.2869l1.3902-5.5228 5.2375-18.41028h6.7086l-9.2862 29.82358z"/><path d="m189.769 31.1929v-29.82352h23.145v5.44031h-18.153l1.392-1.35059v9.3684l-1.392-1.3506h16.148v5.1138h-16.148l1.392-1.3506v9.8598l-1.392-1.3506h18.235v5.4403h-23.227z"/><path d="m172.858 31.559c-2.919 0-5.359-.4089-7.323-1.2269-1.938-.8179-3.396-1.964-4.379-3.4366-.955-1.5007-1.444-3.2042-1.472-5.1138h6.832c.028 1.0092.273 1.8816.735 2.6187.492.7371 1.214 1.3094 2.169 1.7183.983.3826 2.209.5723 3.682.5723 1.855 0 3.287-.3002 4.296-.9004 1.036-.6267 1.555-1.5403 1.555-2.7408 0-.7091-.122-1.2962-.368-1.7596-.245-.4914-.654-.8723-1.227-1.1461-.573-.3001-1.322-.5458-2.249-.7371-.9-.1913-2.018-.3826-3.354-.5722-1.855-.2721-3.506-.6267-4.951-1.0637-1.418-.437-2.605-.9812-3.558-1.6359-.929-.6827-1.638-1.5138-2.128-2.495-.489-.9812-.735-2.1554-.735-3.5175 0-1.90964.491-3.54552 1.472-4.90931 1.01-1.36379 2.441-2.39941 4.296-3.10851 1.855-.73714 4.05-1.10488 6.587-1.10488 2.536 0 4.568.36774 6.34 1.10488 1.773.7091 3.152 1.73153 4.133 3.06893 1.009 1.33576 1.555 2.91887 1.638 4.74605h-6.711c-.054-.9812-.328-1.77276-.818-2.37302-.491-.60027-1.159-1.03562-2.003-1.30937-.82-.2721-1.747-.40897-2.782-.40897-1.118 0-2.073.13687-2.865.40897-.79.2721-1.405.66787-1.84 1.18568-.409.51781-.613 1.14611-.613 1.8816 0 .87235.232 1.55505.695 2.04485.49.4634 1.269.8179 2.332 1.0637 1.09.2457 2.523.4914 4.296.7371 1.61.2177 3.095.5046 4.459.8592 1.392.3545 2.591.8591 3.6 1.5138s1.801 1.5403 2.373 2.6583c.574 1.1181.859 2.5363.859 4.2547 0 1.8552-.491 3.463-1.472 4.8268s-2.441 2.4274-4.377 3.191c-1.91.7355-4.283 1.1048-7.119 1.1048z"/><path d="m104.213 31.1929v-29.82352h23.145v5.44031h-18.153l1.392-1.35059v9.3684l-1.392-1.3506h16.15v5.1138h-16.15l1.392-1.3506v9.8598l-1.392-1.3506h18.236v5.4403h-23.226z"/><path d="m63.3262 31.1929v-29.82352h6.3819v29.82352z"/><path d="m30.536 31.1929v-29.82352h7.7721l13.0904 21.06862h.3265l-.2457-9.4509v-11.61772h6.2599v29.82352h-7.4456l-13.0508-20.6596h-.3282l.2045 8.6725v11.9871h-6.5864z"/><path d="m12.6814 31.5607c-2.6732 0-4.96372-.4766-6.87335-1.4314-1.8816-.9548-3.32784-2.3038-4.33707-4.0501-.979555-1.7728-1.47098-3.8457-1.47098-6.2187v-18.49112h6.3407v18.44992c0 1.3357.24571 2.4686.73714 3.3954.51781.9004 1.25494 1.5815 2.20976 2.0449.9548.437 2.0993.6546 3.4367.6546 1.4182 0 2.5907-.2325 3.5175-.6959.9548-.4914 1.6639-1.1856 2.1273-2.086.4914-.9268.7355-2.0317.7355-3.313v-18.44992h6.3407v18.49112c0 2.4538-.531 4.5547-1.5947 6.2995-1.0356 1.7447-2.5099 3.0821-4.4179 4.0089-1.8816.9267-4.1326 1.3901-6.7496 1.3901z"/><path d="m131.582 31.0937v-29.82351h14.686c2.345 0 4.309.38258 5.891 1.14611 1.581.76352 2.755 1.85521 3.517 3.27341.792 1.41821 1.186 3.10851 1.186 5.07259 0 1.6359-.327 3.0953-.981 4.3766-.655 1.255-1.595 2.2774-2.822 3.069-1.227.7635-2.686 1.2417-4.378 1.4314l.409-1.0225 8.1 12.4769h-7.446l-6.749-10.6777h-5.645v-4.7461h7.65c1.146 0 2.101-.15 2.865-.4502.763-.3001 1.335-.7371 1.718-1.3093.382-.6003.574-1.2962.574-2.0861v-1.3506c0-.84599-.218-1.55509-.655-2.12732-.409-.60027-.996-1.03562-1.76-1.30937-.763-.30013-1.677-.4502-2.74-.4502h-8.223l1.105-1.10488v25.61017h-6.299z"/><path clip-rule="evenodd" d="m197.843 35.7095c-8.392 0-15.176 6.8337-15.176 15.2902 0 6.7579 4.347 12.4802 10.378 14.5053.753.1517 1.03-.3282 1.03-.7339 0-.3545-.024-1.5699-.024-2.8347-4.222.9119-5.101-1.8222-5.101-1.8222-.678-1.7728-1.684-2.228-1.684-2.228-1.382-.9366.101-.9366.101-.9366 1.532.1006 2.337 1.5699 2.337 1.5699 1.357 2.3285 3.542 1.6705 4.422 1.2648.126-.9878.528-1.6705.955-2.0498-3.367-.3545-6.909-1.6705-6.909-7.5445 0-1.6705.602-3.0376 1.558-4.1012-.15-.3793-.678-1.9493.152-4.0502 0 0 1.281-.4057 4.17 1.5699 1.237-.3347 2.513-.5046 3.795-.5062 1.281 0 2.587.1781 3.794.5062 2.889-1.9739 4.171-1.5699 4.171-1.5699.829 2.1009.302 3.6709.15 4.0502.979 1.0636 1.558 2.4307 1.558 4.1012 0 5.8724-3.542 7.1636-6.934 7.5445.552.4816 1.031 1.3919 1.031 2.8348 0 2.0498-.025 3.6956-.025 4.2018 0 .4057.277.8856 1.03.7339 6.031-2.0251 10.378-7.7457 10.378-14.5053.025-8.4548-6.784-15.2902-15.152-15.2902z" fill-rule="evenodd"/></g></svg>