<svg width="510" height="48" viewBox="0 0 510 48" fill="none" xmlns="http://www.w3.org/2000/svg">
<rect width="510" height="48" fill="white"/>
<path id="for Scholarly Excellence" d="M10.584 0.751999C11.896 0.751999 13.016 0.847999 13.944 1.04C14.904 1.232 15.576 1.408 15.96 1.568L15.144 5.408C14.76 5.216 14.216 5.04 13.512 4.88C12.808 4.688 11.944 4.592 10.92 4.592C8.84 4.592 7.384 5.168 6.552 6.32C5.72 7.44 5.304 8.96 5.304 10.88V13.04H14.904V16.784H5.304V38H0.84V10.784C0.84 7.584 1.624 5.12 3.192 3.392C4.76 1.632 7.224 0.751999 10.584 0.751999ZM41.3876 25.52C41.3876 27.504 41.0996 29.296 40.5236 30.896C39.9476 32.496 39.1316 33.872 38.0756 35.024C37.0516 36.176 35.8196 37.072 34.3796 37.712C32.9396 38.32 31.3716 38.624 29.6756 38.624C27.9796 38.624 26.4116 38.32 24.9716 37.712C23.5316 37.072 22.2836 36.176 21.2276 35.024C20.2036 33.872 19.4036 32.496 18.8276 30.896C18.2516 29.296 17.9636 27.504 17.9636 25.52C17.9636 23.568 18.2516 21.792 18.8276 20.192C19.4036 18.56 20.2036 17.168 21.2276 16.016C22.2836 14.864 23.5316 13.984 24.9716 13.376C26.4116 12.736 27.9796 12.416 29.6756 12.416C31.3716 12.416 32.9396 12.736 34.3796 13.376C35.8196 13.984 37.0516 14.864 38.0756 16.016C39.1316 17.168 39.9476 18.56 40.5236 20.192C41.0996 21.792 41.3876 23.568 41.3876 25.52ZM36.7316 25.52C36.7316 22.704 36.0916 20.48 34.8116 18.848C33.5636 17.184 31.8516 16.352 29.6756 16.352C27.4996 16.352 25.7716 17.184 24.4916 18.848C23.2436 20.48 22.6196 22.704 22.6196 25.52C22.6196 28.336 23.2436 30.576 24.4916 32.24C25.7716 33.872 27.4996 34.688 29.6756 34.688C31.8516 34.688 33.5636 33.872 34.8116 32.24C36.0916 30.576 36.7316 28.336 36.7316 25.52ZM56.8841 12.512C57.2681 12.512 57.7001 12.544 58.1801 12.608C58.6921 12.64 59.1881 12.704 59.6681 12.8C60.1481 12.864 60.5801 12.944 60.9641 13.04C61.3801 13.104 61.6841 13.168 61.8761 13.232L61.1081 17.12C60.7561 16.992 60.1641 16.848 59.3321 16.688C58.5321 16.496 57.4921 16.4 56.2121 16.4C55.3801 16.4 54.5481 16.496 53.7161 16.688C52.9161 16.848 52.3881 16.96 52.1321 17.024V38H47.6681V14.096C48.7241 13.712 50.0361 13.36 51.6041 13.04C53.1721 12.688 54.9321 12.512 56.8841 12.512ZM85.3091 34.688C90.1731 34.688 92.6051 33.024 92.6051 29.696C92.6051 28.672 92.3811 27.808 91.9331 27.104C91.5171 26.368 90.9411 25.744 90.2051 25.232C89.4691 24.688 88.6211 24.224 87.6611 23.84C86.7331 23.456 85.7411 23.072 84.6851 22.688C83.4691 22.272 82.3171 21.808 81.2291 21.296C80.1411 20.752 79.1971 20.128 78.3971 19.424C77.5971 18.688 76.9571 17.824 76.4771 16.832C76.0291 15.84 75.8051 14.64 75.8051 13.232C75.8051 10.32 76.7971 8.048 78.7811 6.416C80.7651 4.784 83.5011 3.968 86.9891 3.968C89.0051 3.968 90.8291 4.192 92.4611 4.64C94.1251 5.056 95.3411 5.52 96.1091 6.032L94.6211 9.824C93.9491 9.408 92.9411 9.008 91.5971 8.624C90.2851 8.208 88.7491 8 86.9891 8C86.0931 8 85.2611 8.096 84.4931 8.288C83.7251 8.48 83.0531 8.768 82.4771 9.152C81.9011 9.536 81.4371 10.032 81.0851 10.64C80.7651 11.216 80.6051 11.904 80.6051 12.704C80.6051 13.6 80.7811 14.352 81.1331 14.96C81.4851 15.568 81.9811 16.112 82.6211 16.592C83.2611 17.04 83.9971 17.456 84.8291 17.84C85.6931 18.224 86.6371 18.608 87.6611 18.992C89.1011 19.568 90.4131 20.144 91.5971 20.72C92.8131 21.296 93.8531 21.984 94.7171 22.784C95.6131 23.584 96.3011 24.544 96.7811 25.664C97.2611 26.752 97.5011 28.08 97.5011 29.648C97.5011 32.56 96.4291 34.8 94.2851 36.368C92.1731 37.936 89.1811 38.72 85.3091 38.72C83.9971 38.72 82.7811 38.624 81.6611 38.432C80.5731 38.272 79.5971 38.08 78.7331 37.856C77.8691 37.6 77.1171 37.344 76.4771 37.088C75.8691 36.8 75.3891 36.56 75.0371 36.368L76.4291 32.528C77.1651 32.944 78.2851 33.408 79.7891 33.92C81.2931 34.432 83.1331 34.688 85.3091 34.688ZM113.688 38.576C111.672 38.576 109.896 38.256 108.36 37.616C106.856 36.976 105.576 36.08 104.52 34.928C103.496 33.776 102.728 32.416 102.216 30.848C101.704 29.248 101.448 27.488 101.448 25.568C101.448 23.648 101.72 21.888 102.264 20.288C102.84 18.688 103.64 17.312 104.664 16.16C105.688 14.976 106.936 14.064 108.408 13.424C109.912 12.752 111.576 12.416 113.4 12.416C114.52 12.416 115.64 12.512 116.76 12.704C117.88 12.896 118.952 13.2 119.976 13.616L118.968 17.408C118.296 17.088 117.512 16.832 116.616 16.64C115.752 16.448 114.824 16.352 113.832 16.352C111.336 16.352 109.416 17.136 108.072 18.704C106.76 20.272 106.104 22.56 106.104 25.568C106.104 26.912 106.248 28.144 106.536 29.264C106.856 30.384 107.336 31.344 107.976 32.144C108.648 32.944 109.496 33.568 110.52 34.016C111.544 34.432 112.792 34.64 114.264 34.64C115.448 34.64 116.52 34.528 117.48 34.304C118.44 34.08 119.192 33.84 119.736 33.584L120.36 37.328C120.104 37.488 119.736 37.648 119.256 37.808C118.776 37.936 118.232 38.048 117.624 38.144C117.016 38.272 116.36 38.368 115.656 38.432C114.984 38.528 114.328 38.576 113.688 38.576ZM125.153 38V1.52L129.617 0.751999V13.52C130.449 13.2 131.329 12.96 132.257 12.8C133.217 12.608 134.161 12.512 135.089 12.512C137.073 12.512 138.721 12.8 140.033 13.376C141.345 13.92 142.385 14.704 143.153 15.728C143.953 16.72 144.513 17.92 144.833 19.328C145.153 20.736 145.312 22.288 145.312 23.984V38H140.849V24.944C140.849 23.408 140.737 22.096 140.513 21.008C140.321 19.92 139.985 19.04 139.505 18.368C139.025 17.696 138.385 17.216 137.585 16.928C136.785 16.608 135.793 16.448 134.609 16.448C134.129 16.448 133.633 16.48 133.121 16.544C132.609 16.608 132.113 16.688 131.633 16.784C131.185 16.848 130.769 16.928 130.385 17.024C130.033 17.12 129.777 17.2 129.617 17.264V38H125.153ZM174.606 25.52C174.606 27.504 174.318 29.296 173.742 30.896C173.166 32.496 172.35 33.872 171.294 35.024C170.27 36.176 169.038 37.072 167.598 37.712C166.158 38.32 164.59 38.624 162.894 38.624C161.198 38.624 159.63 38.32 158.19 37.712C156.75 37.072 155.502 36.176 154.446 35.024C153.422 33.872 152.622 32.496 152.046 30.896C151.47 29.296 151.182 27.504 151.182 25.52C151.182 23.568 151.47 21.792 152.046 20.192C152.622 18.56 153.422 17.168 154.446 16.016C155.502 14.864 156.75 13.984 158.19 13.376C159.63 12.736 161.198 12.416 162.894 12.416C164.59 12.416 166.158 12.736 167.598 13.376C169.038 13.984 170.27 14.864 171.294 16.016C172.35 17.168 173.166 18.56 173.742 20.192C174.318 21.792 174.606 23.568 174.606 25.52ZM169.95 25.52C169.95 22.704 169.31 20.48 168.03 18.848C166.782 17.184 165.07 16.352 162.894 16.352C160.718 16.352 158.99 17.184 157.71 18.848C156.462 20.48 155.838 22.704 155.838 25.52C155.838 28.336 156.462 30.576 157.71 32.24C158.99 33.872 160.718 34.688 162.894 34.688C165.07 34.688 166.782 33.872 168.03 32.24C169.31 30.576 169.95 28.336 169.95 25.52ZM188.375 38.48C185.623 38.416 183.671 37.824 182.519 36.704C181.367 35.584 180.791 33.84 180.791 31.472V1.52L185.255 0.751999V30.752C185.255 31.488 185.319 32.096 185.447 32.576C185.575 33.056 185.783 33.44 186.071 33.728C186.359 34.016 186.743 34.24 187.223 34.4C187.703 34.528 188.295 34.64 188.999 34.736L188.375 38.48ZM202.46 34.784C203.516 34.784 204.444 34.768 205.244 34.736C206.076 34.672 206.764 34.576 207.308 34.448V27.008C206.988 26.848 206.46 26.72 205.724 26.624C205.02 26.496 204.156 26.432 203.132 26.432C202.46 26.432 201.74 26.48 200.972 26.576C200.236 26.672 199.548 26.88 198.908 27.2C198.3 27.488 197.788 27.904 197.372 28.448C196.956 28.96 196.748 29.648 196.748 30.512C196.748 32.112 197.26 33.232 198.284 33.872C199.308 34.48 200.7 34.784 202.46 34.784ZM202.076 12.416C203.868 12.416 205.372 12.656 206.588 13.136C207.836 13.584 208.828 14.24 209.564 15.104C210.332 15.936 210.876 16.944 211.196 18.128C211.516 19.28 211.676 20.56 211.676 21.968V37.568C211.292 37.632 210.748 37.728 210.044 37.856C209.372 37.952 208.604 38.048 207.74 38.144C206.876 38.24 205.932 38.32 204.908 38.384C203.916 38.48 202.924 38.528 201.932 38.528C200.524 38.528 199.228 38.384 198.044 38.096C196.86 37.808 195.836 37.36 194.972 36.752C194.108 36.112 193.436 35.28 192.956 34.256C192.476 33.232 192.236 32 192.236 30.56C192.236 29.184 192.508 28 193.052 27.008C193.628 26.016 194.396 25.216 195.356 24.608C196.316 24 197.436 23.552 198.716 23.264C199.996 22.976 201.34 22.832 202.748 22.832C203.196 22.832 203.66 22.864 204.14 22.928C204.62 22.96 205.068 23.024 205.484 23.12C205.932 23.184 206.316 23.248 206.636 23.312C206.956 23.376 207.18 23.424 207.308 23.456V22.208C207.308 21.472 207.228 20.752 207.068 20.048C206.908 19.312 206.62 18.672 206.204 18.128C205.788 17.552 205.212 17.104 204.476 16.784C203.772 16.432 202.844 16.256 201.692 16.256C200.22 16.256 198.924 16.368 197.804 16.592C196.716 16.784 195.9 16.992 195.356 17.216L194.828 13.52C195.404 13.264 196.364 13.024 197.708 12.8C199.052 12.544 200.508 12.416 202.076 12.416ZM228.306 12.512C228.69 12.512 229.122 12.544 229.602 12.608C230.114 12.64 230.61 12.704 231.09 12.8C231.57 12.864 232.002 12.944 232.386 13.04C232.802 13.104 233.106 13.168 233.298 13.232L232.53 17.12C232.178 16.992 231.586 16.848 230.754 16.688C229.954 16.496 228.914 16.4 227.634 16.4C226.802 16.4 225.97 16.496 225.138 16.688C224.338 16.848 223.81 16.96 223.554 17.024V38H219.09V14.096C220.146 13.712 221.458 13.36 223.026 13.04C224.594 12.688 226.354 12.512 228.306 12.512ZM245.094 38.48C242.342 38.416 240.39 37.824 239.238 36.704C238.086 35.584 237.51 33.84 237.51 31.472V1.52L241.974 0.751999V30.752C241.974 31.488 242.038 32.096 242.166 32.576C242.294 33.056 242.502 33.44 242.79 33.728C243.078 34.016 243.462 34.24 243.942 34.4C244.422 34.528 245.014 34.64 245.718 34.736L245.094 38.48ZM247.803 42.656C248.155 42.816 248.603 42.96 249.147 43.088C249.723 43.248 250.283 43.328 250.827 43.328C252.587 43.328 253.963 42.928 254.955 42.128C255.947 41.36 256.843 40.096 257.643 38.336C255.627 34.496 253.739 30.432 251.979 26.144C250.251 21.824 248.811 17.456 247.659 13.04H252.459C252.811 14.48 253.227 16.032 253.707 17.696C254.219 19.36 254.779 21.072 255.387 22.832C255.995 24.592 256.651 26.352 257.355 28.112C258.059 29.872 258.795 31.568 259.563 33.2C260.779 29.84 261.835 26.512 262.731 23.216C263.627 19.92 264.475 16.528 265.275 13.04H269.883C268.731 17.744 267.451 22.272 266.043 26.624C264.635 30.944 263.115 34.992 261.483 38.768C260.843 40.208 260.171 41.44 259.467 42.464C258.795 43.52 258.043 44.384 257.211 45.056C256.379 45.728 255.435 46.224 254.379 46.544C253.355 46.864 252.187 47.024 250.875 47.024C250.523 47.024 250.155 46.992 249.771 46.928C249.387 46.896 249.003 46.832 248.619 46.736C248.267 46.672 247.931 46.592 247.611 46.496C247.323 46.4 247.115 46.32 246.987 46.256L247.803 42.656ZM285.987 38V4.736H306.291V8.72H290.643V18.608H304.563V22.496H290.643V34.016H307.491V38H285.987ZM328.471 38C328.119 37.296 327.687 36.512 327.175 35.648C326.663 34.784 326.103 33.904 325.495 33.008C324.887 32.08 324.263 31.168 323.623 30.272C322.983 29.376 322.359 28.528 321.751 27.728C321.143 28.528 320.519 29.392 319.879 30.32C319.239 31.216 318.615 32.128 318.007 33.056C317.431 33.952 316.887 34.832 316.375 35.696C315.863 36.56 315.431 37.328 315.079 38H310.471C311.591 35.824 312.919 33.616 314.455 31.376C316.023 29.104 317.575 26.944 319.111 24.896L310.855 13.04H315.895L321.847 21.776L327.847 13.04H332.599L324.535 24.608C326.071 26.688 327.639 28.896 329.239 31.232C330.871 33.536 332.247 35.792 333.367 38H328.471ZM347.876 38.576C345.86 38.576 344.084 38.256 342.548 37.616C341.044 36.976 339.764 36.08 338.708 34.928C337.684 33.776 336.916 32.416 336.404 30.848C335.892 29.248 335.636 27.488 335.636 25.568C335.636 23.648 335.908 21.888 336.452 20.288C337.028 18.688 337.828 17.312 338.852 16.16C339.876 14.976 341.124 14.064 342.596 13.424C344.1 12.752 345.764 12.416 347.588 12.416C348.708 12.416 349.828 12.512 350.948 12.704C352.068 12.896 353.14 13.2 354.164 13.616L353.156 17.408C352.484 17.088 351.7 16.832 350.804 16.64C349.94 16.448 349.012 16.352 348.02 16.352C345.524 16.352 343.604 17.136 342.26 18.704C340.948 20.272 340.292 22.56 340.292 25.568C340.292 26.912 340.436 28.144 340.724 29.264C341.044 30.384 341.524 31.344 342.164 32.144C342.836 32.944 343.684 33.568 344.708 34.016C345.732 34.432 346.98 34.64 348.452 34.64C349.636 34.64 350.708 34.528 351.668 34.304C352.628 34.08 353.38 33.84 353.924 33.584L354.548 37.328C354.292 37.488 353.924 37.648 353.444 37.808C352.964 37.936 352.42 38.048 351.812 38.144C351.204 38.272 350.548 38.368 349.844 38.432C349.172 38.528 348.516 38.576 347.876 38.576ZM357.948 25.568C357.948 23.36 358.268 21.44 358.908 19.808C359.548 18.144 360.396 16.768 361.452 15.68C362.508 14.592 363.724 13.776 365.1 13.232C366.476 12.688 367.884 12.416 369.324 12.416C372.684 12.416 375.26 13.472 377.052 15.584C378.844 17.664 379.74 20.848 379.74 25.136C379.74 25.328 379.74 25.584 379.74 25.904C379.74 26.192 379.724 26.464 379.692 26.72H362.604C362.796 29.312 363.548 31.28 364.86 32.624C366.172 33.968 368.22 34.64 371.004 34.64C372.572 34.64 373.884 34.512 374.94 34.256C376.028 33.968 376.844 33.696 377.388 33.44L378.012 37.184C377.468 37.472 376.508 37.776 375.132 38.096C373.788 38.416 372.252 38.576 370.524 38.576C368.348 38.576 366.46 38.256 364.86 37.616C363.292 36.944 361.996 36.032 360.972 34.88C359.948 33.728 359.18 32.368 358.668 30.8C358.188 29.2 357.948 27.456 357.948 25.568ZM375.084 23.12C375.116 21.104 374.604 19.456 373.548 18.176C372.524 16.864 371.1 16.208 369.276 16.208C368.252 16.208 367.34 16.416 366.54 16.832C365.772 17.216 365.116 17.728 364.572 18.368C364.028 19.008 363.596 19.744 363.276 20.576C362.988 21.408 362.796 22.256 362.7 23.12H375.084ZM393.641 38.48C390.889 38.416 388.937 37.824 387.785 36.704C386.633 35.584 386.057 33.84 386.057 31.472V1.52L390.521 0.751999V30.752C390.521 31.488 390.585 32.096 390.713 32.576C390.841 33.056 391.049 33.44 391.337 33.728C391.625 34.016 392.009 34.24 392.489 34.4C392.969 34.528 393.561 34.64 394.265 34.736L393.641 38.48ZM406.766 38.48C404.014 38.416 402.062 37.824 400.91 36.704C399.758 35.584 399.182 33.84 399.182 31.472V1.52L403.646 0.751999V30.752C403.646 31.488 403.71 32.096 403.838 32.576C403.966 33.056 404.174 33.44 404.462 33.728C404.75 34.016 405.134 34.24 405.614 34.4C406.094 34.528 406.686 34.64 407.39 34.736L406.766 38.48ZM411.011 25.568C411.011 23.36 411.331 21.44 411.971 19.808C412.611 18.144 413.459 16.768 414.515 15.68C415.571 14.592 416.787 13.776 418.163 13.232C419.539 12.688 420.947 12.416 422.387 12.416C425.747 12.416 428.323 13.472 430.115 15.584C431.907 17.664 432.802 20.848 432.802 25.136C432.802 25.328 432.802 25.584 432.802 25.904C432.802 26.192 432.786 26.464 432.755 26.72H415.667C415.859 29.312 416.611 31.28 417.923 32.624C419.235 33.968 421.283 34.64 424.067 34.64C425.635 34.64 426.947 34.512 428.003 34.256C429.091 33.968 429.907 33.696 430.451 33.44L431.075 37.184C430.531 37.472 429.571 37.776 428.195 38.096C426.851 38.416 425.315 38.576 423.587 38.576C421.411 38.576 419.523 38.256 417.923 37.616C416.355 36.944 415.059 36.032 414.035 34.88C413.011 33.728 412.243 32.368 411.73 30.8C411.251 29.2 411.011 27.456 411.011 25.568ZM428.147 23.12C428.179 21.104 427.667 19.456 426.611 18.176C425.587 16.864 424.163 16.208 422.339 16.208C421.315 16.208 420.403 16.416 419.603 16.832C418.835 17.216 418.179 17.728 417.635 18.368C417.091 19.008 416.659 19.744 416.339 20.576C416.051 21.408 415.859 22.256 415.763 23.12H428.147ZM439.215 13.76C440.239 13.504 441.599 13.232 443.295 12.944C444.991 12.656 446.943 12.512 449.151 12.512C451.135 12.512 452.783 12.8 454.095 13.376C455.407 13.92 456.447 14.704 457.215 15.728C458.015 16.72 458.575 17.92 458.895 19.328C459.215 20.736 459.375 22.288 459.375 23.984V38H454.911V24.944C454.911 23.408 454.799 22.096 454.575 21.008C454.383 19.92 454.047 19.04 453.567 18.368C453.087 17.696 452.447 17.216 451.647 16.928C450.847 16.608 449.855 16.448 448.671 16.448C448.191 16.448 447.695 16.464 447.183 16.496C446.671 16.528 446.175 16.576 445.695 16.64C445.247 16.672 444.831 16.72 444.447 16.784C444.095 16.848 443.839 16.896 443.679 16.928V38H439.215V13.76ZM477.626 38.576C475.61 38.576 473.834 38.256 472.298 37.616C470.794 36.976 469.514 36.08 468.458 34.928C467.434 33.776 466.666 32.416 466.154 30.848C465.642 29.248 465.386 27.488 465.386 25.568C465.386 23.648 465.658 21.888 466.202 20.288C466.778 18.688 467.578 17.312 468.602 16.16C469.626 14.976 470.874 14.064 472.346 13.424C473.85 12.752 475.514 12.416 477.338 12.416C478.458 12.416 479.578 12.512 480.698 12.704C481.818 12.896 482.89 13.2 483.914 13.616L482.906 17.408C482.234 17.088 481.45 16.832 480.554 16.64C479.69 16.448 478.762 16.352 477.77 16.352C475.274 16.352 473.354 17.136 472.01 18.704C470.698 20.272 470.042 22.56 470.042 25.568C470.042 26.912 470.186 28.144 470.474 29.264C470.794 30.384 471.274 31.344 471.914 32.144C472.586 32.944 473.434 33.568 474.458 34.016C475.482 34.432 476.73 34.64 478.202 34.64C479.386 34.64 480.458 34.528 481.418 34.304C482.378 34.08 483.13 33.84 483.674 33.584L484.298 37.328C484.042 37.488 483.674 37.648 483.194 37.808C482.714 37.936 482.17 38.048 481.562 38.144C480.954 38.272 480.298 38.368 479.594 38.432C478.922 38.528 478.266 38.576 477.626 38.576ZM487.698 25.568C487.698 23.36 488.018 21.44 488.658 19.808C489.298 18.144 490.146 16.768 491.202 15.68C492.258 14.592 493.474 13.776 494.85 13.232C496.226 12.688 497.634 12.416 499.074 12.416C502.434 12.416 505.01 13.472 506.802 15.584C508.594 17.664 509.49 20.848 509.49 25.136C509.49 25.328 509.49 25.584 509.49 25.904C509.49 26.192 509.474 26.464 509.442 26.72H492.354C492.546 29.312 493.298 31.28 494.61 32.624C495.922 33.968 497.97 34.64 500.754 34.64C502.322 34.64 503.634 34.512 504.69 34.256C505.778 33.968 506.594 33.696 507.138 33.44L507.762 37.184C507.218 37.472 506.258 37.776 504.882 38.096C503.538 38.416 502.002 38.576 500.274 38.576C498.098 38.576 496.21 38.256 494.61 37.616C493.042 36.944 491.746 36.032 490.722 34.88C489.698 33.728 488.93 32.368 488.418 30.8C487.938 29.2 487.698 27.456 487.698 25.568ZM504.834 23.12C504.866 21.104 504.354 19.456 503.298 18.176C502.274 16.864 500.85 16.208 499.026 16.208C498.002 16.208 497.09 16.416 496.29 16.832C495.522 17.216 494.866 17.728 494.322 18.368C493.778 19.008 493.346 19.744 493.026 20.576C492.738 21.408 492.546 22.256 492.45 23.12H504.834Z" fill="black"/>
</svg>
