<svg width="1099" height="97" viewBox="0 0 1099 97" fill="white" xmlns="http://www.w3.org/2000/svg">
<path d="M55.816 6.296H68.232V95H55.816V54.04H12.424V95H0.00800037V6.296H12.424V43.288H55.816V6.296ZM148.242 61.72C148.242 67.0107 147.474 71.7893 145.938 76.056C144.402 80.3227 142.226 83.992 139.41 87.064C136.679 90.136 133.394 92.5253 129.554 94.232C125.714 95.8533 121.533 96.664 117.01 96.664C112.487 96.664 108.306 95.8533 104.466 94.232C100.626 92.5253 97.298 90.136 94.482 87.064C91.7513 83.992 89.618 80.3227 88.082 76.056C86.546 71.7893 85.778 67.0107 85.778 61.72C85.778 56.5147 86.546 51.7787 88.082 47.512C89.618 43.16 91.7513 39.448 94.482 36.376C97.298 33.304 100.626 30.9573 104.466 29.336C108.306 27.6293 112.487 26.776 117.01 26.776C121.533 26.776 125.714 27.6293 129.554 29.336C133.394 30.9573 136.679 33.304 139.41 36.376C142.226 39.448 144.402 43.16 145.938 47.512C147.474 51.7787 148.242 56.5147 148.242 61.72ZM135.826 61.72C135.826 54.2107 134.119 48.28 130.706 43.928C127.378 39.4907 122.813 37.272 117.01 37.272C111.207 37.272 106.599 39.4907 103.186 43.928C99.858 48.28 98.194 54.2107 98.194 61.72C98.194 69.2293 99.858 75.2027 103.186 79.64C106.599 83.992 111.207 86.168 117.01 86.168C122.813 86.168 127.378 83.992 130.706 79.64C134.119 75.2027 135.826 69.2293 135.826 61.72ZM164.99 30.36C167.721 29.6773 171.347 28.952 175.87 28.184C180.393 27.416 185.598 27.032 191.486 27.032C196.777 27.032 201.171 27.8 204.67 29.336C208.169 30.7867 210.942 32.8773 212.99 35.608C215.123 38.2533 216.617 41.4533 217.47 45.208C218.323 48.9627 218.75 53.1013 218.75 57.624V95H206.846V60.184C206.846 56.088 206.547 52.5893 205.95 49.688C205.438 46.7867 204.542 44.44 203.262 42.648C201.982 40.856 200.275 39.576 198.142 38.808C196.009 37.9547 193.363 37.528 190.206 37.528C188.926 37.528 187.603 37.5707 186.238 37.656C184.873 37.7413 183.55 37.8693 182.27 38.04C181.075 38.1253 179.966 38.2533 178.942 38.424C178.003 38.5947 177.321 38.7227 176.894 38.808V95H164.99V30.36ZM297.242 61.72C297.242 67.0107 296.474 71.7893 294.938 76.056C293.402 80.3227 291.226 83.992 288.41 87.064C285.679 90.136 282.394 92.5253 278.554 94.232C274.714 95.8533 270.533 96.664 266.01 96.664C261.487 96.664 257.306 95.8533 253.466 94.232C249.626 92.5253 246.298 90.136 243.482 87.064C240.751 83.992 238.618 80.3227 237.082 76.056C235.546 71.7893 234.778 67.0107 234.778 61.72C234.778 56.5147 235.546 51.7787 237.082 47.512C238.618 43.16 240.751 39.448 243.482 36.376C246.298 33.304 249.626 30.9573 253.466 29.336C257.306 27.6293 261.487 26.776 266.01 26.776C270.533 26.776 274.714 27.6293 278.554 29.336C282.394 30.9573 285.679 33.304 288.41 36.376C291.226 39.448 293.402 43.16 294.938 47.512C296.474 51.7787 297.242 56.5147 297.242 61.72ZM284.826 61.72C284.826 54.2107 283.119 48.28 279.706 43.928C276.378 39.4907 271.813 37.272 266.01 37.272C260.207 37.272 255.599 39.4907 252.186 43.928C248.858 48.28 247.194 54.2107 247.194 61.72C247.194 69.2293 248.858 75.2027 252.186 79.64C255.599 83.992 260.207 86.168 266.01 86.168C271.813 86.168 276.378 83.992 279.706 79.64C283.119 75.2027 284.826 69.2293 284.826 61.72ZM338.566 27.032C339.59 27.032 340.742 27.1173 342.022 27.288C343.387 27.3733 344.71 27.544 345.99 27.8C347.27 27.9707 348.422 28.184 349.446 28.44C350.555 28.6107 351.366 28.7813 351.878 28.952L349.83 39.32C348.891 38.9787 347.313 38.5947 345.094 38.168C342.961 37.656 340.187 37.4 336.774 37.4C334.555 37.4 332.337 37.656 330.118 38.168C327.985 38.5947 326.577 38.8933 325.894 39.064V95H313.99V31.256C316.806 30.232 320.305 29.2933 324.486 28.44C328.667 27.5013 333.361 27.032 338.566 27.032ZM378.853 86.424C383.717 86.424 387.301 85.784 389.605 84.504C391.994 83.224 393.189 81.176 393.189 78.36C393.189 75.4587 392.037 73.1547 389.733 71.448C387.429 69.7413 383.632 67.8213 378.341 65.688C375.781 64.664 373.306 63.64 370.917 62.616C368.613 61.5067 366.608 60.2267 364.901 58.776C363.194 57.3253 361.829 55.576 360.805 53.528C359.781 51.48 359.269 48.9627 359.269 45.976C359.269 40.088 361.445 35.4373 365.797 32.024C370.149 28.5253 376.08 26.776 383.589 26.776C385.466 26.776 387.344 26.904 389.221 27.16C391.098 27.3307 392.848 27.5867 394.469 27.928C396.09 28.184 397.498 28.4827 398.693 28.824C399.973 29.1653 400.954 29.464 401.637 29.72L399.461 39.96C398.181 39.2773 396.176 38.5947 393.445 37.912C390.714 37.144 387.429 36.76 383.589 36.76C380.261 36.76 377.36 37.4427 374.885 38.808C372.41 40.088 371.173 42.136 371.173 44.952C371.173 46.4027 371.429 47.6827 371.941 48.792C372.538 49.9013 373.392 50.9253 374.501 51.864C375.696 52.7173 377.146 53.528 378.853 54.296C380.56 55.064 382.608 55.8747 384.997 56.728C388.154 57.9227 390.97 59.1173 393.445 60.312C395.92 61.4213 398.01 62.744 399.717 64.28C401.509 65.816 402.874 67.6933 403.813 69.912C404.752 72.0453 405.221 74.6907 405.221 77.848C405.221 83.992 402.917 88.6427 398.309 91.8C393.786 94.9573 387.301 96.536 378.853 96.536C372.965 96.536 368.357 96.024 365.029 95C361.701 94.0613 359.44 93.336 358.245 92.824L360.421 82.584C361.786 83.096 363.962 83.864 366.949 84.888C369.936 85.912 373.904 86.424 378.853 86.424ZM510.147 95C508.696 91.16 507.331 87.4053 506.051 83.736C504.771 79.9813 503.448 76.184 502.083 72.344H461.891L453.827 95H440.899C444.312 85.6133 447.512 76.952 450.499 69.016C453.486 60.9947 456.387 53.4 459.203 46.232C462.104 39.064 464.963 32.2373 467.779 25.752C470.595 19.1813 473.539 12.696 476.611 6.296H488.003C491.075 12.696 494.019 19.1813 496.835 25.752C499.651 32.2373 502.467 39.064 505.283 46.232C508.184 53.4 511.128 60.9947 514.115 69.016C517.102 76.952 520.302 85.6133 523.715 95H510.147ZM498.499 62.104C495.768 54.68 493.038 47.512 490.307 40.6C487.662 33.6027 484.888 26.904 481.987 20.504C479 26.904 476.142 33.6027 473.411 40.6C470.766 47.512 468.12 54.68 465.475 62.104H498.499ZM552.103 86.424C556.967 86.424 560.551 85.784 562.855 84.504C565.244 83.224 566.439 81.176 566.439 78.36C566.439 75.4587 565.287 73.1547 562.983 71.448C560.679 69.7413 556.882 67.8213 551.591 65.688C549.031 64.664 546.556 63.64 544.167 62.616C541.863 61.5067 539.858 60.2267 538.151 58.776C536.444 57.3253 535.079 55.576 534.055 53.528C533.031 51.48 532.519 48.9627 532.519 45.976C532.519 40.088 534.695 35.4373 539.047 32.024C543.399 28.5253 549.33 26.776 556.839 26.776C558.716 26.776 560.594 26.904 562.471 27.16C564.348 27.3307 566.098 27.5867 567.719 27.928C569.34 28.184 570.748 28.4827 571.943 28.824C573.223 29.1653 574.204 29.464 574.887 29.72L572.711 39.96C571.431 39.2773 569.426 38.5947 566.695 37.912C563.964 37.144 560.679 36.76 556.839 36.76C553.511 36.76 550.61 37.4427 548.135 38.808C545.66 40.088 544.423 42.136 544.423 44.952C544.423 46.4027 544.679 47.6827 545.191 48.792C545.788 49.9013 546.642 50.9253 547.751 51.864C548.946 52.7173 550.396 53.528 552.103 54.296C553.81 55.064 555.858 55.8747 558.247 56.728C561.404 57.9227 564.22 59.1173 566.695 60.312C569.17 61.4213 571.26 62.744 572.967 64.28C574.759 65.816 576.124 67.6933 577.063 69.912C578.002 72.0453 578.471 74.6907 578.471 77.848C578.471 83.992 576.167 88.6427 571.559 91.8C567.036 94.9573 560.551 96.536 552.103 96.536C546.215 96.536 541.607 96.024 538.279 95C534.951 94.0613 532.69 93.336 531.495 92.824L533.671 82.584C535.036 83.096 537.212 83.864 540.199 84.888C543.186 85.912 547.154 86.424 552.103 86.424ZM609.228 86.424C614.092 86.424 617.676 85.784 619.98 84.504C622.369 83.224 623.564 81.176 623.564 78.36C623.564 75.4587 622.412 73.1547 620.108 71.448C617.804 69.7413 614.007 67.8213 608.716 65.688C606.156 64.664 603.681 63.64 601.292 62.616C598.988 61.5067 596.983 60.2267 595.276 58.776C593.569 57.3253 592.204 55.576 591.18 53.528C590.156 51.48 589.644 48.9627 589.644 45.976C589.644 40.088 591.82 35.4373 596.172 32.024C600.524 28.5253 606.455 26.776 613.964 26.776C615.841 26.776 617.719 26.904 619.596 27.16C621.473 27.3307 623.223 27.5867 624.844 27.928C626.465 28.184 627.873 28.4827 629.068 28.824C630.348 29.1653 631.329 29.464 632.012 29.72L629.836 39.96C628.556 39.2773 626.551 38.5947 623.82 37.912C621.089 37.144 617.804 36.76 613.964 36.76C610.636 36.76 607.735 37.4427 605.26 38.808C602.785 40.088 601.548 42.136 601.548 44.952C601.548 46.4027 601.804 47.6827 602.316 48.792C602.913 49.9013 603.767 50.9253 604.876 51.864C606.071 52.7173 607.521 53.528 609.228 54.296C610.935 55.064 612.983 55.8747 615.372 56.728C618.529 57.9227 621.345 59.1173 623.82 60.312C626.295 61.4213 628.385 62.744 630.092 64.28C631.884 65.816 633.249 67.6933 634.188 69.912C635.127 72.0453 635.596 74.6907 635.596 77.848C635.596 83.992 633.292 88.6427 628.684 91.8C624.161 94.9573 617.676 96.536 609.228 96.536C603.34 96.536 598.732 96.024 595.404 95C592.076 94.0613 589.815 93.336 588.62 92.824L590.796 82.584C592.161 83.096 594.337 83.864 597.324 84.888C600.311 85.912 604.279 86.424 609.228 86.424ZM709.617 61.72C709.617 67.0107 708.849 71.7893 707.313 76.056C705.777 80.3227 703.601 83.992 700.785 87.064C698.054 90.136 694.769 92.5253 690.929 94.232C687.089 95.8533 682.908 96.664 678.385 96.664C673.862 96.664 669.681 95.8533 665.841 94.232C662.001 92.5253 658.673 90.136 655.857 87.064C653.126 83.992 650.993 80.3227 649.457 76.056C647.921 71.7893 647.153 67.0107 647.153 61.72C647.153 56.5147 647.921 51.7787 649.457 47.512C650.993 43.16 653.126 39.448 655.857 36.376C658.673 33.304 662.001 30.9573 665.841 29.336C669.681 27.6293 673.862 26.776 678.385 26.776C682.908 26.776 687.089 27.6293 690.929 29.336C694.769 30.9573 698.054 33.304 700.785 36.376C703.601 39.448 705.777 43.16 707.313 47.512C708.849 51.7787 709.617 56.5147 709.617 61.72ZM697.201 61.72C697.201 54.2107 695.494 48.28 692.081 43.928C688.753 39.4907 684.188 37.272 678.385 37.272C672.582 37.272 667.974 39.4907 664.561 43.928C661.233 48.28 659.569 54.2107 659.569 61.72C659.569 69.2293 661.233 75.2027 664.561 79.64C667.974 83.992 672.582 86.168 678.385 86.168C684.188 86.168 688.753 83.992 692.081 79.64C695.494 75.2027 697.201 69.2293 697.201 61.72ZM755.293 96.536C749.917 96.536 745.181 95.6827 741.085 93.976C737.074 92.2693 733.661 89.88 730.845 86.808C728.114 83.736 726.066 80.1093 724.701 75.928C723.336 71.6613 722.653 66.968 722.653 61.848C722.653 56.728 723.378 52.0347 724.829 47.768C726.365 43.5013 728.498 39.832 731.229 36.76C733.96 33.6027 737.288 31.1707 741.213 29.464C745.224 27.672 749.661 26.776 754.525 26.776C757.512 26.776 760.498 27.032 763.485 27.544C766.472 28.056 769.33 28.8667 772.061 29.976L769.373 40.088C767.581 39.2347 765.49 38.552 763.101 38.04C760.797 37.528 758.322 37.272 755.677 37.272C749.021 37.272 743.901 39.3627 740.317 43.544C736.818 47.7253 735.069 53.8267 735.069 61.848C735.069 65.432 735.453 68.7173 736.221 71.704C737.074 74.6907 738.354 77.2507 740.061 79.384C741.853 81.5173 744.114 83.1813 746.845 84.376C749.576 85.4853 752.904 86.04 756.829 86.04C759.986 86.04 762.845 85.7413 765.405 85.144C767.965 84.5467 769.97 83.9067 771.421 83.224L773.085 93.208C772.402 93.6347 771.421 94.0613 770.141 94.488C768.861 94.8293 767.41 95.128 765.789 95.384C764.168 95.7253 762.418 95.9813 760.541 96.152C758.749 96.408 757 96.536 755.293 96.536ZM797.769 95H785.865V28.44H797.769V95ZM791.753 16.408C789.62 16.408 787.785 15.7253 786.249 14.36C784.798 12.9093 784.073 10.9893 784.073 8.6C784.073 6.21067 784.798 4.33333 786.249 2.96799C787.785 1.51733 789.62 0.791992 791.753 0.791992C793.886 0.791992 795.678 1.51733 797.129 2.96799C798.665 4.33333 799.433 6.21067 799.433 8.6C799.433 10.9893 798.665 12.9093 797.129 14.36C795.678 15.7253 793.886 16.408 791.753 16.408ZM840.768 86.424C843.584 86.424 846.059 86.3813 848.192 86.296C850.411 86.1253 852.245 85.8693 853.696 85.528V65.688C852.843 65.2613 851.435 64.92 849.472 64.664C847.595 64.3227 845.291 64.152 842.56 64.152C840.768 64.152 838.848 64.28 836.8 64.536C834.837 64.792 833.003 65.3467 831.296 66.2C829.675 66.968 828.309 68.0773 827.2 69.528C826.091 70.8933 825.536 72.728 825.536 75.032C825.536 79.2987 826.901 82.2853 829.632 83.992C832.363 85.6133 836.075 86.424 840.768 86.424ZM839.744 26.776C844.523 26.776 848.533 27.416 851.776 28.696C855.104 29.8907 857.749 31.64 859.712 33.944C861.76 36.1627 863.211 38.8507 864.064 42.008C864.917 45.08 865.344 48.4933 865.344 52.248V93.848C864.32 94.0187 862.869 94.2747 860.992 94.616C859.2 94.872 857.152 95.128 854.848 95.384C852.544 95.64 850.027 95.8533 847.296 96.024C844.651 96.28 842.005 96.408 839.36 96.408C835.605 96.408 832.149 96.024 828.992 95.256C825.835 94.488 823.104 93.2933 820.8 91.672C818.496 89.9653 816.704 87.7467 815.424 85.016C814.144 82.2853 813.504 79 813.504 75.16C813.504 71.4907 814.229 68.3333 815.68 65.688C817.216 63.0427 819.264 60.9093 821.824 59.288C824.384 57.6667 827.371 56.472 830.784 55.704C834.197 54.936 837.781 54.552 841.536 54.552C842.731 54.552 843.968 54.6373 845.248 54.808C846.528 54.8933 847.723 55.064 848.832 55.32C850.027 55.4907 851.051 55.6613 851.904 55.832C852.757 56.0027 853.355 56.1307 853.696 56.216V52.888C853.696 50.9253 853.483 49.0053 853.056 47.128C852.629 45.1653 851.861 43.4587 850.752 42.008C849.643 40.472 848.107 39.2773 846.144 38.424C844.267 37.4853 841.792 37.016 838.72 37.016C834.795 37.016 831.339 37.3147 828.352 37.912C825.451 38.424 823.275 38.9787 821.824 39.576L820.416 29.72C821.952 29.0373 824.512 28.3973 828.096 27.8C831.68 27.1173 835.563 26.776 839.744 26.776ZM896.251 28.44H921.467V38.424H896.251V69.144C896.251 72.472 896.507 75.2453 897.019 77.464C897.531 79.5973 898.299 81.304 899.323 82.584C900.347 83.7787 901.627 84.632 903.163 85.144C904.699 85.656 906.491 85.912 908.539 85.912C912.123 85.912 914.982 85.528 917.115 84.76C919.334 83.9067 920.87 83.3093 921.723 82.968L924.027 92.824C922.832 93.4213 920.742 94.1467 917.755 95C914.768 95.9387 911.355 96.408 907.515 96.408C902.992 96.408 899.238 95.8533 896.251 94.744C893.35 93.5493 891.003 91.8 889.211 89.496C887.419 87.192 886.139 84.376 885.371 81.048C884.688 77.6347 884.347 73.7093 884.347 69.272V9.88L896.251 7.83199V28.44ZM948.519 95H936.615V28.44H948.519V95ZM942.503 16.408C940.37 16.408 938.535 15.7253 936.999 14.36C935.548 12.9093 934.823 10.9893 934.823 8.6C934.823 6.21067 935.548 4.33333 936.999 2.96799C938.535 1.51733 940.37 0.791992 942.503 0.791992C944.636 0.791992 946.428 1.51733 947.879 2.96799C949.415 4.33333 950.183 6.21067 950.183 8.6C950.183 10.9893 949.415 12.9093 947.879 14.36C946.428 15.7253 944.636 16.408 942.503 16.408ZM1027.74 61.72C1027.74 67.0107 1026.97 71.7893 1025.44 76.056C1023.9 80.3227 1021.73 83.992 1018.91 87.064C1016.18 90.136 1012.89 92.5253 1009.05 94.232C1005.21 95.8533 1001.03 96.664 996.51 96.664C991.987 96.664 987.806 95.8533 983.966 94.232C980.126 92.5253 976.798 90.136 973.982 87.064C971.251 83.992 969.118 80.3227 967.582 76.056C966.046 71.7893 965.278 67.0107 965.278 61.72C965.278 56.5147 966.046 51.7787 967.582 47.512C969.118 43.16 971.251 39.448 973.982 36.376C976.798 33.304 980.126 30.9573 983.966 29.336C987.806 27.6293 991.987 26.776 996.51 26.776C1001.03 26.776 1005.21 27.6293 1009.05 29.336C1012.89 30.9573 1016.18 33.304 1018.91 36.376C1021.73 39.448 1023.9 43.16 1025.44 47.512C1026.97 51.7787 1027.74 56.5147 1027.74 61.72ZM1015.33 61.72C1015.33 54.2107 1013.62 48.28 1010.21 43.928C1006.88 39.4907 1002.31 37.272 996.51 37.272C990.707 37.272 986.099 39.4907 982.686 43.928C979.358 48.28 977.694 54.2107 977.694 61.72C977.694 69.2293 979.358 75.2027 982.686 79.64C986.099 83.992 990.707 86.168 996.51 86.168C1002.31 86.168 1006.88 83.992 1010.21 79.64C1013.62 75.2027 1015.33 69.2293 1015.33 61.72ZM1044.49 30.36C1047.22 29.6773 1050.85 28.952 1055.37 28.184C1059.89 27.416 1065.1 27.032 1070.99 27.032C1076.28 27.032 1080.67 27.8 1084.17 29.336C1087.67 30.7867 1090.44 32.8773 1092.49 35.608C1094.62 38.2533 1096.12 41.4533 1096.97 45.208C1097.82 48.9627 1098.25 53.1013 1098.25 57.624V95H1086.35V60.184C1086.35 56.088 1086.05 52.5893 1085.45 49.688C1084.94 46.7867 1084.04 44.44 1082.76 42.648C1081.48 40.856 1079.78 39.576 1077.64 38.808C1075.51 37.9547 1072.86 37.528 1069.71 37.528C1068.43 37.528 1067.1 37.5707 1065.74 37.656C1064.37 37.7413 1063.05 37.8693 1061.77 38.04C1060.58 38.1253 1059.47 38.2533 1058.44 38.424C1057.5 38.5947 1056.82 38.7227 1056.39 38.808V95H1044.49V30.36Z" fill="black"/>
</svg>
