<svg width="406" height="91" viewBox="0 0 406 91" fill="none" xmlns="http://www.w3.org/2000/svg">
<rect width="406" height="91" fill="white"/>
<path id="Honors" d="M55.816 0.295998H68.232V89H55.816V48.04H12.424V89H0.00800037V0.295998H12.424V37.288H55.816V0.295998ZM148.242 55.72C148.242 61.0107 147.474 65.7893 145.938 70.056C144.402 74.3227 142.226 77.992 139.41 81.064C136.679 84.136 133.394 86.5253 129.554 88.232C125.714 89.8533 121.533 90.664 117.01 90.664C112.487 90.664 108.306 89.8533 104.466 88.232C100.626 86.5253 97.298 84.136 94.482 81.064C91.7513 77.992 89.618 74.3227 88.082 70.056C86.546 65.7893 85.778 61.0107 85.778 55.72C85.778 50.5147 86.546 45.7787 88.082 41.512C89.618 37.16 91.7513 33.448 94.482 30.376C97.298 27.304 100.626 24.9573 104.466 23.336C108.306 21.6293 112.487 20.776 117.01 20.776C121.533 20.776 125.714 21.6293 129.554 23.336C133.394 24.9573 136.679 27.304 139.41 30.376C142.226 33.448 144.402 37.16 145.938 41.512C147.474 45.7787 148.242 50.5147 148.242 55.72ZM135.826 55.72C135.826 48.2107 134.119 42.28 130.706 37.928C127.378 33.4907 122.813 31.272 117.01 31.272C111.207 31.272 106.599 33.4907 103.186 37.928C99.858 42.28 98.194 48.2107 98.194 55.72C98.194 63.2293 99.858 69.2027 103.186 73.64C106.599 77.992 111.207 80.168 117.01 80.168C122.813 80.168 127.378 77.992 130.706 73.64C134.119 69.2027 135.826 63.2293 135.826 55.72ZM164.99 24.36C167.721 23.6773 171.347 22.952 175.87 22.184C180.393 21.416 185.598 21.032 191.486 21.032C196.777 21.032 201.171 21.8 204.67 23.336C208.169 24.7867 210.942 26.8773 212.99 29.608C215.123 32.2533 216.617 35.4533 217.47 39.208C218.323 42.9627 218.75 47.1013 218.75 51.624V89H206.846V54.184C206.846 50.088 206.547 46.5893 205.95 43.688C205.438 40.7867 204.542 38.44 203.262 36.648C201.982 34.856 200.275 33.576 198.142 32.808C196.009 31.9547 193.363 31.528 190.206 31.528C188.926 31.528 187.603 31.5707 186.238 31.656C184.873 31.7413 183.55 31.8693 182.27 32.04C181.075 32.1253 179.966 32.2533 178.942 32.424C178.003 32.5947 177.321 32.7227 176.894 32.808V89H164.99V24.36ZM297.242 55.72C297.242 61.0107 296.474 65.7893 294.938 70.056C293.402 74.3227 291.226 77.992 288.41 81.064C285.679 84.136 282.394 86.5253 278.554 88.232C274.714 89.8533 270.533 90.664 266.01 90.664C261.487 90.664 257.306 89.8533 253.466 88.232C249.626 86.5253 246.298 84.136 243.482 81.064C240.751 77.992 238.618 74.3227 237.082 70.056C235.546 65.7893 234.778 61.0107 234.778 55.72C234.778 50.5147 235.546 45.7787 237.082 41.512C238.618 37.16 240.751 33.448 243.482 30.376C246.298 27.304 249.626 24.9573 253.466 23.336C257.306 21.6293 261.487 20.776 266.01 20.776C270.533 20.776 274.714 21.6293 278.554 23.336C282.394 24.9573 285.679 27.304 288.41 30.376C291.226 33.448 293.402 37.16 294.938 41.512C296.474 45.7787 297.242 50.5147 297.242 55.72ZM284.826 55.72C284.826 48.2107 283.119 42.28 279.706 37.928C276.378 33.4907 271.813 31.272 266.01 31.272C260.207 31.272 255.599 33.4907 252.186 37.928C248.858 42.28 247.194 48.2107 247.194 55.72C247.194 63.2293 248.858 69.2027 252.186 73.64C255.599 77.992 260.207 80.168 266.01 80.168C271.813 80.168 276.378 77.992 279.706 73.64C283.119 69.2027 284.826 63.2293 284.826 55.72ZM338.566 21.032C339.59 21.032 340.742 21.1173 342.022 21.288C343.387 21.3733 344.71 21.544 345.99 21.8C347.27 21.9707 348.422 22.184 349.446 22.44C350.555 22.6107 351.366 22.7813 351.878 22.952L349.83 33.32C348.891 32.9787 347.313 32.5947 345.094 32.168C342.961 31.656 340.187 31.4 336.774 31.4C334.555 31.4 332.337 31.656 330.118 32.168C327.985 32.5947 326.577 32.8933 325.894 33.064V89H313.99V25.256C316.806 24.232 320.305 23.2933 324.486 22.44C328.667 21.5013 333.361 21.032 338.566 21.032ZM378.853 80.424C383.717 80.424 387.301 79.784 389.605 78.504C391.994 77.224 393.189 75.176 393.189 72.36C393.189 69.4587 392.037 67.1547 389.733 65.448C387.429 63.7413 383.632 61.8213 378.341 59.688C375.781 58.664 373.306 57.64 370.917 56.616C368.613 55.5067 366.608 54.2267 364.901 52.776C363.194 51.3253 361.829 49.576 360.805 47.528C359.781 45.48 359.269 42.9627 359.269 39.976C359.269 34.088 361.445 29.4373 365.797 26.024C370.149 22.5253 376.08 20.776 383.589 20.776C385.466 20.776 387.344 20.904 389.221 21.16C391.098 21.3307 392.848 21.5867 394.469 21.928C396.09 22.184 397.498 22.4827 398.693 22.824C399.973 23.1653 400.954 23.464 401.637 23.72L399.461 33.96C398.181 33.2773 396.176 32.5947 393.445 31.912C390.714 31.144 387.429 30.76 383.589 30.76C380.261 30.76 377.36 31.4427 374.885 32.808C372.41 34.088 371.173 36.136 371.173 38.952C371.173 40.4027 371.429 41.6827 371.941 42.792C372.538 43.9013 373.392 44.9253 374.501 45.864C375.696 46.7173 377.146 47.528 378.853 48.296C380.56 49.064 382.608 49.8747 384.997 50.728C388.154 51.9227 390.97 53.1173 393.445 54.312C395.92 55.4213 398.01 56.744 399.717 58.28C401.509 59.816 402.874 61.6933 403.813 63.912C404.752 66.0453 405.221 68.6907 405.221 71.848C405.221 77.992 402.917 82.6427 398.309 85.8C393.786 88.9573 387.301 90.536 378.853 90.536C372.965 90.536 368.357 90.024 365.029 89C361.701 88.0613 359.44 87.336 358.245 86.824L360.421 76.584C361.786 77.096 363.962 77.864 366.949 78.888C369.936 79.912 373.904 80.424 378.853 80.424Z" fill="black"/>
</svg>
