<svg width="162" height="104" viewBox="0 0 162 104" fill="none" xmlns="http://www.w3.org/2000/svg">

<path id="HSE" d="M35.28 46.648V24.12C35.28 20.9627 34.9387 18.7013 34.256 17.336C33.5733 15.9707 32.1653 15.288 30.032 15.288V11.32L56.272 0.311996L58.32 4.408C56.4427 4.408 54.6507 5.51733 52.944 7.73599C51.408 9.86933 50.64 13.112 50.64 17.464V46.648H57.04V49.72L50.64 52.92V80.056C50.64 85.2613 52.3893 88.2053 55.888 88.888V91.704L42.96 99C41.0827 98.232 39.3333 96.9947 37.712 95.288C36.0907 93.496 35.28 91.832 35.28 90.296V52.92H23.76V79.288C23.76 82.4453 24.1013 84.7067 24.784 86.072C25.4667 87.4373 26.8747 88.12 29.008 88.12V92.088L2.768 103.096L0.72 99C2.59733 99 4.38933 97.8907 6.096 95.672C7.632 93.5387 8.4 90.296 8.4 85.944V19.384C8.4 14.1787 6.65067 11.2347 3.152 10.552V7.73599L16.08 0.439995C17.9573 1.208 19.7067 2.488 21.328 4.28C22.9493 5.98666 23.76 7.608 23.76 9.144V50.104L30.16 46.648H35.28ZM71.208 58.168C69.0747 58.168 67.24 56.5467 65.704 53.304C64.168 50.0613 63.4 46.0933 63.4 41.4V14.776C63.4 13.1547 67.88 10.3813 76.84 6.45599C85.8 2.44533 90.9627 0.439995 92.328 0.439995C93.352 0.439995 94.8027 2.14666 96.68 5.56C97.1067 6.41333 97.704 7.56533 98.472 9.016C99.3253 10.4667 100.008 11.6613 100.52 12.6C101.629 14.648 103.037 15.672 104.744 15.672V18.232C103.379 18.8293 101.544 19.7253 99.24 20.92C93.864 23.9067 90.9627 25.4 90.536 25.4C89.256 25.4 87.6347 22.8827 85.672 17.848C83.7947 12.8133 82.2587 10.296 81.064 10.296C79.528 10.296 78.76 11.576 78.76 14.136V42.68C78.76 46.0933 79.528 47.8 81.064 47.8C81.4053 47.8 84.0507 46.6907 89 44.472C93.9493 42.2533 96.936 41.144 97.96 41.144C100.008 41.144 101.8 42.808 103.336 46.136C104.957 49.3787 105.768 53.56 105.768 58.68V85.944C105.768 87.5653 100.861 90.3813 91.048 94.392C81.32 98.3173 75.7307 100.28 74.28 100.28C73.6827 100.28 73 99.5547 72.232 98.104C71.464 96.6533 70.44 94.6053 69.16 91.96C67.9653 89.2293 66.856 86.968 65.832 85.176C64.8933 83.384 63.5707 82.488 61.864 82.488V79.928C63.2293 79.3307 65.0213 78.4347 67.24 77.24C72.7013 74.2533 75.6453 72.76 76.072 72.76C77.352 72.76 79.144 75.704 81.448 81.592C83.8373 87.48 85.6293 90.424 86.824 90.424C87.6773 90.424 88.488 90.0827 89.256 89.4C90.024 88.7173 90.408 87.7787 90.408 86.584V57.784C90.408 53.944 89.3413 52.024 87.208 52.024C86.5253 52.024 83.8373 53.048 79.144 55.096C74.4507 57.144 71.8053 58.168 71.208 58.168ZM135.439 12.856C134.586 12.856 133.818 13.2827 133.135 14.136V47.928H151.183V51L144.783 54.2H133.135V67C133.135 76.472 134.074 82.0187 135.951 83.64C138.767 86.0293 141.839 87.3947 145.167 87.736C148.495 88.0773 152.079 88.248 155.919 88.248V91.96C155.492 91.96 152.335 93.1547 146.447 95.544C140.559 97.848 136.975 99 135.695 99C133.05 99 129.38 96.952 124.687 92.856C120.079 88.76 117.775 84.3227 117.775 79.544V12.216C117.775 11.6187 122.639 9.52799 132.367 5.94399C142.18 2.27466 147.812 0.439995 149.263 0.439995C149.775 0.439995 150.372 1.67733 151.055 4.15199C151.738 6.62666 152.506 9.61333 153.359 13.112C154.298 16.6107 155.236 19.2133 156.175 20.92C157.199 22.5413 159.076 23.352 161.807 23.352V25.912C159.93 26.7653 156.73 28.3013 152.207 30.52C147.77 32.6533 145.38 33.72 145.039 33.72C143.759 33.72 142.138 30.264 140.175 23.352C138.212 16.3547 136.634 12.856 135.439 12.856Z" fill="black"/>
</svg>
