<svg fill="none" height="24" viewBox="0 0 206 24" width="206" xmlns="http://www.w3.org/2000/svg"><g fill="#0d1117"><path d="m9.82556 23.0452c-2.09039 0-3.82902-.358-5.21591-1.0742-1.38689-.7161-2.42204-1.7207-3.10543-3.0137-.663295-1.2931-.994943-2.8049-.994943-4.5356v-13.427562h4.673213v13.188862c0 .9748.1809 1.8202.5427 2.5363.3618.6963.89444 1.2433 1.59794 1.6412.70349.3779 1.54769.5669 2.53258.5669.94469 0 1.75869-.179 2.44209-.5371.7035-.3779 1.2462-.915 1.6281-1.6113.3819-.7161.5729-1.5815.5729-2.596v-13.188862h4.6732v13.427562c0 1.8103-.392 3.3619-1.1758 4.6549-.7638 1.2732-1.8492 2.2578-3.2562 2.9541-1.3869.6763-3.0251 1.0145-4.91444 1.0145z"/><path d="m22.8894 22.7468v-21.752662h6.3616l8.1706 13.845362.4824.8653h.1507v-14.710662h4.7335v21.752662h-5.9395l-8.5927-14.02434-.4824-.80565h-.1507v14.82999z"/><path d="m46.9842 22.7468v-21.752662h4.7335v21.752662z"/><path d="m61.3084 22.7468-6.7837-21.752662h4.9747l4.4019 15.725162.392 1.8202h.2412l.3919-1.8202 4.432-15.725162h4.9747l-6.7837 21.752662z"/><path d="m77.089 22.7468v-21.752662h17.1251v4.028272h-12.271v4.8041h10.673v3.75969h-10.673v5.1324h12.271v4.0282z"/><path d="m97.0821 22.7468v-21.752662h10.9139c1.769 0 3.226.288442 4.372.865332 1.166.557 2.04 1.35271 2.623 2.38713s.874 2.26777.874 3.70004c0 1.19357-.241 2.25786-.723 3.19276-.483.9151-1.176 1.6511-2.081 2.2081-.884.557-1.949.9051-3.195 1.0444l.301-.746 5.94 9.1009h-5.729l-4.854-7.7283h-4.01v-3.5807h5.548c.804 0 1.477-.1094 2.02-.3282.542-.2188.944-.5272 1.206-.925.281-.41777.422-.90514.422-1.46214v-.95485c0-.59678-.151-1.0941-.452-1.49196-.302-.41774-.724-.72608-1.267-.92501-.542-.19892-1.186-.29839-1.929-.29839h-5.91l.784-.83549v18.53004z"/><path d="m127.467 23.0452c-2.111 0-3.87-.2984-5.277-.8952-1.407-.5967-2.472-1.4223-3.195-2.4766-.704-1.0742-1.056-2.3076-1.056-3.7h4.975c.04.7758.251 1.4223.633 1.9395.402.4973.945.8653 1.628 1.104.684.2388 1.498.3581 2.442.3581.945 0 1.729-.0995 2.352-.2984.623-.2188 1.086-.5371 1.387-.9548.322-.4178.482-.9151.482-1.492 0-.5371-.13-.9648-.392-1.2831-.241-.3381-.603-.6067-1.085-.8056-.482-.2188-1.065-.3879-1.749-.5073-.663-.1392-1.427-.2785-2.291-.4177-1.226-.1791-2.332-.4277-3.316-.746-.965-.3183-1.789-.7161-2.473-1.1936-.683-.4973-1.206-1.0941-1.568-1.79032-.341-.71613-.512-1.57152-.512-2.56616 0-1.45217.372-2.66562 1.115-3.64037.764-.99463 1.819-1.73066 3.166-2.20809 1.367-.497315 2.945-.745974 4.734-.745974 1.929 0 3.567.258606 4.914.775814 1.347.51721 2.382 1.26319 3.106 2.23793.723.95485 1.095 2.10863 1.115 3.46134h-5.005c0-.61668-.171-1.13389-.512-1.55163-.342-.43765-.814-.76588-1.417-.98469-.603-.23872-1.337-.35807-2.201-.35807-.804 0-1.488.09946-2.05.29839-.563.19892-.995.47742-1.297.83549-.281.35807-.422.79571-.422 1.31292 0 .47743.111.87528.332 1.19356.241.29839.583.53711 1.025.71614.442.17904.995.33818 1.658.47743.663.11935 1.427.24866 2.291.38791.885.11935 1.729.27849 2.533.47738.824.199 1.578.4576 2.261.7759.684.3182 1.266.726 1.749 1.2234.502.4774.884 1.0642 1.146 1.7605.281.6962.422 1.5218.422 2.4766 0 1.4721-.392 2.7154-1.176 3.7299-.764 1.0145-1.859 1.7804-3.287 2.2976-1.427.5172-3.155.7758-5.185.7758z"/><path d="m139.945 22.7468v-21.752662h17.125v4.028272h-12.27v4.8041h10.673v3.75969h-10.673v5.1324h12.27v4.0282z"/></g><path d="m159.833 1.79559c0-.43628.357-.79003.798-.79003h5.59c0 3.49187-2.861 6.32184-6.388 6.32184z" fill="#57606a"/><path d="m167.141 22.7527v-.7758c0-1.1538.231-2.1683.693-3.0436.483-.8753 1.106-1.6511 1.87-2.3275.783-.6763 1.648-1.283 2.592-1.8201.945-.557 1.88-1.0842 2.804-1.5815.945-.4973 1.809-1.0046 2.593-1.5218.784-.5371 1.407-1.114 1.87-1.73068.462-.63656.693-1.36265.693-2.17825 0-.79571-.191-1.44222-.573-1.93954-.382-.51721-.894-.90512-1.537-1.16372-.624-.25861-1.317-.38791-2.081-.38791-.985 0-1.829.16909-2.532.50726-.684.33818-1.206.80566-1.568 1.40244s-.573 1.29303-.633 2.08874h-4.131c.121-1.63121.553-2.98391 1.297-4.05812.743-1.07421 1.768-1.87986 3.075-2.41696 1.306-.53711 2.854-.80566 4.643-.80566s3.306.2785 4.553.83549c1.246.557 2.19 1.33282 2.834 2.32745.663.99464.995 2.15836.995 3.49117 0 .99464-.201 1.88981-.603 2.68549-.382.7758-.905 1.4721-1.568 2.0888-.643.6166-1.357 1.1736-2.141 1.671-.784.4973-1.588.9648-2.412 1.4024s-1.598.8653-2.321 1.2831c-.724.4177-1.337.8454-1.839 1.2831-.503.4376-.835.915-.995 1.4322h12.029v3.2525z" fill="#57606a"/><path d="m197.757 22.7527-.03-4.9831h-12.512v-2.9839l11.487-13.54699h5.366v13.18889h3.196v3.342h-3.196v4.9831zm-7.929-8.3251h7.929v-9.22029z" fill="#57606a"/></svg>